<svg width="17" height="16" viewBox="0 0 17 16" fill="none" xmlns="http://www.w3.org/2000/svg">
<path d="M14.6562 7.32115H4.0428L10.3952 1.89258C10.4968 1.80508 10.4352 1.64258 10.3009 1.64258H8.69558C8.62483 1.64258 8.55772 1.66758 8.50511 1.71222L1.65021 7.56758C1.58742 7.62115 1.53707 7.68739 1.50256 7.76179C1.46805 7.8362 1.4502 7.91704 1.4502 7.99883C1.4502 8.08062 1.46805 8.16146 1.50256 8.23587C1.53707 8.31027 1.58742 8.3765 1.65021 8.43008L8.54502 14.3211C8.57223 14.3444 8.60488 14.3569 8.63934 14.3569H10.2991C10.4333 14.3569 10.495 14.1926 10.3934 14.1069L4.0428 8.67829H14.6562C14.736 8.67829 14.8013 8.61401 14.8013 8.53544V7.46401C14.8013 7.38544 14.736 7.32115 14.6562 7.32115Z" fill="black" fill-opacity="0.85"/>
</svg>
