<svg width="24" height="24" viewBox="0 0 24 24" fill="none" xmlns="http://www.w3.org/2000/svg">
<path d="M21.6499 20.6271C21.5841 20.7411 21.4894 20.8358 21.3753 20.9016C21.2613 20.9675 21.1319 21.0021 21.0002 21.0021H3.00021C2.86862 21.0019 2.73938 20.9672 2.62548 20.9013C2.51157 20.8354 2.417 20.7407 2.35127 20.6267C2.28553 20.5127 2.25094 20.3835 2.25098 20.2519C2.25101 20.1203 2.28566 19.991 2.35146 19.8771C3.77927 17.4086 5.97958 15.6386 8.54739 14.7996C7.27724 14.0434 6.29041 12.8913 5.73845 11.52C5.18648 10.1487 5.09991 8.63419 5.49203 7.20896C5.88414 5.78373 6.73326 4.52662 7.90898 3.63068C9.0847 2.73474 10.522 2.24951 12.0002 2.24951C13.4784 2.24951 14.9157 2.73474 16.0914 3.63068C17.2672 4.52662 18.1163 5.78373 18.5084 7.20896C18.9005 8.63419 18.8139 10.1487 18.262 11.52C17.71 12.8913 16.7232 14.0434 15.453 14.7996C18.0208 15.6386 20.2211 17.4086 21.649 19.8771C21.7149 19.991 21.7497 20.1203 21.7499 20.2519C21.7501 20.3836 21.7156 20.513 21.6499 20.6271Z" fill="#34A853"/>
</svg>
