<svg width="24" height="24" viewBox="0 0 24 24" fill="none" xmlns="http://www.w3.org/2000/svg">
<path d="M21.6499 20.628C21.5841 20.7421 21.4894 20.8368 21.3753 20.9026C21.2613 20.9684 21.1319 21.0031 21.0002 21.003H3.00021C2.86862 21.0029 2.73938 20.9682 2.62548 20.9023C2.51157 20.8364 2.417 20.7417 2.35127 20.6277C2.28553 20.5137 2.25094 20.3844 2.25098 20.2528C2.25101 20.1213 2.28566 19.992 2.35146 19.878C3.77927 17.4096 5.97958 15.6396 8.54739 14.8005C7.27724 14.0444 6.29041 12.8922 5.73845 11.521C5.18648 10.1497 5.09991 8.63517 5.49203 7.20994C5.88414 5.78471 6.73326 4.5276 7.90898 3.63166C9.0847 2.73572 10.522 2.25049 12.0002 2.25049C13.4784 2.25049 14.9157 2.73572 16.0914 3.63166C17.2672 4.5276 18.1163 5.78471 18.5084 7.20994C18.9005 8.63517 18.8139 10.1497 18.262 11.521C17.71 12.8922 16.7232 14.0444 15.453 14.8005C18.0208 15.6396 20.2211 17.4096 21.649 19.878C21.7149 19.992 21.7497 20.1213 21.7499 20.2529C21.7501 20.3846 21.7156 20.5139 21.6499 20.628Z" fill="#4285F4"/>
</svg>
