<svg width="15" height="15" viewBox="0 0 15 15" fill="none" xmlns="http://www.w3.org/2000/svg">
<path d="M13.7899 7.39237L7.75241 1.358L7.34772 0.953311C7.25551 0.861712 7.13082 0.810303 7.00085 0.810303C6.87087 0.810303 6.74618 0.861712 6.65397 0.953311L0.211783 7.39237C0.117301 7.48649 0.0426296 7.59858 -0.00782254 7.72202C-0.0582747 7.84547 -0.0834854 7.97777 -0.0819665 8.11112C-0.0757165 8.66112 0.382096 9.10019 0.932096 9.10019H1.59616V14.1892H12.4055V9.10019H13.0837C13.3508 9.10019 13.6024 8.9955 13.7915 8.80644C13.8846 8.71364 13.9583 8.6033 14.0085 8.4818C14.0586 8.36031 14.0842 8.23007 14.0837 8.09862C14.0837 7.833 13.979 7.58144 13.7899 7.39237ZM7.87585 13.0642H6.12585V9.87675H7.87585V13.0642ZM11.2805 7.97519V13.0642H8.87585V9.50175C8.87585 9.15644 8.59616 8.87675 8.25085 8.87675H5.75085C5.40553 8.87675 5.12585 9.15644 5.12585 9.50175V13.0642H2.72116V7.97519H1.22116L7.00241 2.19862L7.36335 2.55956L12.7821 7.97519H11.2805Z" fill="black" fill-opacity="0.85"/>
</svg>
