<svg width="15" height="15" viewBox="0 0 15 15" fill="none" xmlns="http://www.w3.org/2000/svg">
<path d="M13.7899 7.39262L7.75241 1.35824L7.34772 0.953555C7.25551 0.861956 7.13082 0.810547 7.00085 0.810547C6.87087 0.810547 6.74618 0.861956 6.65397 0.953555L0.211783 7.39262C0.117301 7.48673 0.0426296 7.59882 -0.00782254 7.72227C-0.0582747 7.84571 -0.0834854 7.97802 -0.0819665 8.11137C-0.0757165 8.66137 0.382096 9.10043 0.932096 9.10043H1.59616V14.1895H12.4055V9.10043H13.0837C13.3508 9.10043 13.6024 8.99574 13.7915 8.80668C13.8846 8.71389 13.9583 8.60355 14.0085 8.48205C14.0586 8.36055 14.0842 8.23031 14.0837 8.09887C14.0837 7.83324 13.979 7.58168 13.7899 7.39262ZM7.87585 13.0645H6.12585V9.87699H7.87585V13.0645ZM11.2805 7.97543V13.0645H8.87585V9.50199C8.87585 9.15668 8.59616 8.87699 8.25085 8.87699H5.75085C5.40553 8.87699 5.12585 9.15668 5.12585 9.50199V13.0645H2.72116V7.97543H1.22116L7.00241 2.19887L7.36335 2.55981L12.7821 7.97543H11.2805Z" fill="black" fill-opacity="0.85"/>
</svg>
