<svg width="14" height="13" viewBox="0 0 14 13" fill="none" xmlns="http://www.w3.org/2000/svg">
<path d="M9.5566 4.32843H8.91539C8.77594 4.32843 8.64332 4.39542 8.56129 4.51027L6.41207 7.49074L5.43863 6.13995C5.3566 6.02648 5.22535 5.95812 5.08453 5.95812H4.44332C4.35445 5.95812 4.3025 6.05929 4.35445 6.13175L6.05797 8.49425C6.09821 8.55042 6.15126 8.59619 6.21272 8.62776C6.27419 8.65933 6.34229 8.6758 6.41139 8.6758C6.48048 8.6758 6.54859 8.65933 6.61005 8.62776C6.67151 8.59619 6.72456 8.55042 6.7648 8.49425L9.6441 4.50206C9.69742 4.4296 9.64547 4.32843 9.5566 4.32843Z" fill="black" fill-opacity="0.85"/>
<path d="M7 0.377686C3.61758 0.377686 0.875 3.12026 0.875 6.50269C0.875 9.88511 3.61758 12.6277 7 12.6277C10.3824 12.6277 13.125 9.88511 13.125 6.50269C13.125 3.12026 10.3824 0.377686 7 0.377686ZM7 11.5886C4.1918 11.5886 1.91406 9.31089 1.91406 6.50269C1.91406 3.69448 4.1918 1.41675 7 1.41675C9.8082 1.41675 12.0859 3.69448 12.0859 6.50269C12.0859 9.31089 9.8082 11.5886 7 11.5886Z" fill="black" fill-opacity="0.85"/>
</svg>
