<svg width="14" height="11" viewBox="0 0 14 11" fill="none" xmlns="http://www.w3.org/2000/svg">
<path d="M13.5 -0.00012207H0.5C0.223437 -0.00012207 0 0.223315 0 0.499878V10.4999C0 10.7764 0.223437 10.9999 0.5 10.9999H13.5C13.7766 10.9999 14 10.7764 14 10.4999V0.499878C14 0.223315 13.7766 -0.00012207 13.5 -0.00012207ZM12.875 3.24988H9.5625V1.12488H12.875V3.24988ZM12.875 6.74988H9.5625V4.24988H12.875V6.74988ZM5.4375 4.24988H8.5625V6.74988H5.4375V4.24988ZM8.5625 3.24988H5.4375V1.12488H8.5625V3.24988ZM1.125 4.24988H4.4375V6.74988H1.125V4.24988ZM1.125 1.12488H4.4375V3.24988H1.125V1.12488ZM1.125 7.74988H4.4375V9.87488H1.125V7.74988ZM5.4375 7.74988H8.5625V9.87488H5.4375V7.74988ZM12.875 9.87488H9.5625V7.74988H12.875V9.87488Z" fill="black" fill-opacity="0.85"/>
</svg>
