<svg width="14" height="13" viewBox="0 0 14 13" fill="none" xmlns="http://www.w3.org/2000/svg">
<path d="M7 0.37793C3.61758 0.37793 0.875 3.12051 0.875 6.50293C0.875 9.88535 3.61758 12.6279 7 12.6279C10.3824 12.6279 13.125 9.88535 13.125 6.50293C13.125 3.12051 10.3824 0.37793 7 0.37793ZM7 11.5889C4.1918 11.5889 1.91406 9.31113 1.91406 6.50293C1.91406 3.69473 4.1918 1.41699 7 1.41699C9.8082 1.41699 12.0859 3.69473 12.0859 6.50293C12.0859 9.31113 9.8082 11.5889 7 11.5889Z" fill="black" fill-opacity="0.85"/>
<path d="M6.34354 4.09668C6.34354 4.27073 6.41268 4.43765 6.53575 4.56072C6.65882 4.68379 6.82574 4.75293 6.99979 4.75293C7.17383 4.75293 7.34075 4.68379 7.46382 4.56072C7.5869 4.43765 7.65604 4.27073 7.65604 4.09668C7.65604 3.92263 7.5869 3.75571 7.46382 3.63264C7.34075 3.50957 7.17383 3.44043 6.99979 3.44043C6.82574 3.44043 6.65882 3.50957 6.53575 3.63264C6.41268 3.75571 6.34354 3.92263 6.34354 4.09668ZM7.32791 5.62793H6.67166C6.61151 5.62793 6.56229 5.67715 6.56229 5.7373V9.45605C6.56229 9.51621 6.61151 9.56543 6.67166 9.56543H7.32791C7.38807 9.56543 7.43729 9.51621 7.43729 9.45605V5.7373C7.43729 5.67715 7.38807 5.62793 7.32791 5.62793Z" fill="black" fill-opacity="0.85"/>
</svg>
