<svg width="12" height="11" viewBox="0 0 12 11" fill="none" xmlns="http://www.w3.org/2000/svg">
<path d="M11.437 1.44894L7.93699 0.282271H7.89616C7.86901 0.279542 7.84165 0.279542 7.81449 0.282271H7.68033H7.60449H7.56366L4.25033 1.41977L0.936994 0.282271C0.849269 0.253344 0.755929 0.245664 0.664656 0.259862C0.573383 0.27406 0.486787 0.30973 0.411994 0.363937C0.336603 0.417614 0.275065 0.488458 0.232464 0.570616C0.189864 0.652775 0.167422 0.743891 0.166994 0.836437V9.0031C0.166678 9.1254 0.204805 9.24469 0.275985 9.34414C0.347165 9.44358 0.447799 9.51814 0.563661 9.55727L4.06366 10.7239C4.18117 10.7623 4.30782 10.7623 4.42533 10.7239L7.75033 9.6156L11.0637 10.7531C11.1256 10.7615 11.1884 10.7615 11.2503 10.7531C11.3723 10.7548 11.4913 10.7158 11.5887 10.6423C11.6641 10.5886 11.7256 10.5177 11.7682 10.4356C11.8108 10.3534 11.8332 10.2623 11.8337 10.1698V2.0031C11.834 1.88081 11.7958 1.76151 11.7247 1.66207C11.6535 1.56263 11.5529 1.48807 11.437 1.44894ZM3.66699 9.35894L1.33366 8.5831V1.64727L3.66699 2.4231V9.35894ZM7.16699 8.5831L4.83366 9.35894V2.4231L7.16699 1.64727V8.5831ZM10.667 9.35894L8.33366 8.5831V1.64727L10.667 2.4231V9.35894Z" fill="black" fill-opacity="0.85"/>
</svg>
