<svg width="14" height="13" viewBox="0 0 14 13" fill="none" xmlns="http://www.w3.org/2000/svg">
<path d="M13.125 6.50134H12.25C12.1813 6.50134 12.125 6.55759 12.125 6.62634V11.6263H1.875V1.37634H6.875C6.94375 1.37634 7 1.32009 7 1.25134V0.376343C7 0.307593 6.94375 0.251343 6.875 0.251343H1.25C0.973438 0.251343 0.75 0.47478 0.75 0.751343V12.2513C0.75 12.5279 0.973438 12.7513 1.25 12.7513H12.75C13.0266 12.7513 13.25 12.5279 13.25 12.2513V6.62634C13.25 6.55759 13.1938 6.50134 13.125 6.50134Z" fill="#1B963A"/>
<path d="M4.56083 6.85916L4.53115 8.71697C4.52958 8.85603 4.64208 8.97009 4.78115 8.97009H4.7874L6.63115 8.92478C6.6624 8.92322 6.69365 8.91072 6.71552 8.88884L13.214 2.40447C13.2624 2.35603 13.2624 2.27634 13.214 2.22791L11.2718 0.28728C11.2468 0.26228 11.2155 0.251343 11.1827 0.251343C11.1499 0.251343 11.1186 0.263843 11.0936 0.28728L4.59677 6.77165C4.5742 6.79526 4.56137 6.8265 4.56083 6.85916ZM5.55302 7.2279L11.1827 1.61072L11.889 2.31541L6.25615 7.93572L5.54208 7.9529L5.55302 7.2279Z" fill="#1B963A"/>
</svg>
