<svg width="14" height="13" viewBox="0 0 14 13" fill="none" xmlns="http://www.w3.org/2000/svg">
<path d="M7 0.377686C3.61758 0.377686 0.875 3.12026 0.875 6.50269C0.875 9.88511 3.61758 12.6277 7 12.6277C10.3824 12.6277 13.125 9.88511 13.125 6.50269C13.125 3.12026 10.3824 0.377686 7 0.377686ZM7 11.5886C4.1918 11.5886 1.91406 9.31089 1.91406 6.50269C1.91406 3.69448 4.1918 1.41675 7 1.41675C9.8082 1.41675 12.0859 3.69448 12.0859 6.50269C12.0859 9.31089 9.8082 11.5886 7 11.5886Z" fill="black" fill-opacity="0.85"/>
<path d="M6.34354 4.09644C6.34354 4.27048 6.41268 4.4374 6.53575 4.56047C6.65882 4.68355 6.82574 4.75269 6.99979 4.75269C7.17383 4.75269 7.34075 4.68355 7.46382 4.56047C7.5869 4.4374 7.65604 4.27048 7.65604 4.09644C7.65604 3.92239 7.5869 3.75547 7.46382 3.6324C7.34075 3.50933 7.17383 3.44019 6.99979 3.44019C6.82574 3.44019 6.65882 3.50933 6.53575 3.6324C6.41268 3.75547 6.34354 3.92239 6.34354 4.09644ZM7.32791 5.62769H6.67166C6.61151 5.62769 6.56229 5.6769 6.56229 5.73706V9.45581C6.56229 9.51597 6.61151 9.56519 6.67166 9.56519H7.32791C7.38807 9.56519 7.43729 9.51597 7.43729 9.45581V5.73706C7.43729 5.6769 7.38807 5.62769 7.32791 5.62769Z" fill="black" fill-opacity="0.85"/>
</svg>
