<svg width="12" height="11" viewBox="0 0 12 11" fill="none" xmlns="http://www.w3.org/2000/svg">
<path d="M11.437 1.44845L7.93699 0.281782H7.89616C7.86901 0.279053 7.84165 0.279053 7.81449 0.281782H7.68033H7.60449H7.56366L4.25033 1.41928L0.936994 0.281782C0.849269 0.252856 0.755929 0.245176 0.664656 0.259374C0.573383 0.273572 0.486787 0.309242 0.411994 0.363449C0.336603 0.417125 0.275065 0.487969 0.232464 0.570128C0.189864 0.652287 0.167422 0.743403 0.166994 0.835949V9.00261C0.166678 9.12491 0.204805 9.24421 0.275985 9.34365C0.347165 9.44309 0.447799 9.51765 0.563661 9.55678L4.06366 10.7234C4.18117 10.7618 4.30782 10.7618 4.42533 10.7234L7.75033 9.61512L11.0637 10.7526C11.1256 10.761 11.1884 10.761 11.2503 10.7526C11.3723 10.7543 11.4913 10.7153 11.5887 10.6418C11.6641 10.5881 11.7256 10.5173 11.7682 10.4351C11.8108 10.3529 11.8332 10.2618 11.8337 10.1693V2.00262C11.834 1.88032 11.7958 1.76102 11.7247 1.66158C11.6535 1.56214 11.5529 1.48758 11.437 1.44845ZM3.66699 9.35845L1.33366 8.58262V1.64678L3.66699 2.42262V9.35845ZM7.16699 8.58262L4.83366 9.35845V2.42262L7.16699 1.64678V8.58262ZM10.667 9.35845L8.33366 8.58262V1.64678L10.667 2.42262V9.35845Z" fill="black" fill-opacity="0.85"/>
</svg>
