<svg width="14" height="13" viewBox="0 0 14 13" fill="none" xmlns="http://www.w3.org/2000/svg">
<path d="M13.125 6.50147H12.25C12.1813 6.50147 12.125 6.55771 12.125 6.62646V11.6265H1.875V1.37646H6.875C6.94375 1.37646 7 1.32021 7 1.25146V0.376465C7 0.307715 6.94375 0.251465 6.875 0.251465H1.25C0.973438 0.251465 0.75 0.474902 0.75 0.751465V12.2515C0.75 12.528 0.973438 12.7515 1.25 12.7515H12.75C13.0266 12.7515 13.25 12.528 13.25 12.2515V6.62646C13.25 6.55771 13.1938 6.50147 13.125 6.50147Z" fill="black" fill-opacity="0.85"/>
<path d="M4.56083 6.85928L4.53115 8.71709C4.52958 8.85615 4.64208 8.97021 4.78115 8.97021H4.7874L6.63115 8.9249C6.6624 8.92334 6.69365 8.91084 6.71552 8.88896L13.214 2.40459C13.2624 2.35615 13.2624 2.27646 13.214 2.22803L11.2718 0.287402C11.2468 0.262402 11.2155 0.251465 11.1827 0.251465C11.1499 0.251465 11.1186 0.263965 11.0936 0.287402L4.59677 6.77178C4.5742 6.79538 4.56137 6.82663 4.56083 6.85928ZM5.55302 7.22803L11.1827 1.61084L11.889 2.31553L6.25615 7.93584L5.54208 7.95303L5.55302 7.22803Z" fill="black" fill-opacity="0.85"/>
</svg>
