<svg width="13" height="12" viewBox="0 0 13 12" fill="none" xmlns="http://www.w3.org/2000/svg">
<path d="M10.2191 5.66233L4.18156 0.9467C4.16578 0.93428 4.14682 0.926562 4.12686 0.924431C4.10689 0.9223 4.08673 0.925844 4.06869 0.934655C4.05065 0.943466 4.03546 0.957188 4.02486 0.974243C4.01426 0.991299 4.0087 1.011 4.00879 1.03108V2.06634C4.00879 2.13197 4.03959 2.19491 4.09049 2.23509L8.91192 5.99983L4.09049 9.76456C4.03825 9.80474 4.00879 9.86768 4.00879 9.93331V10.9686C4.00879 11.0583 4.11192 11.1079 4.18156 11.053L10.2191 6.33733C10.2704 6.2973 10.3119 6.2461 10.3404 6.18761C10.369 6.12913 10.3838 6.06491 10.3838 5.99983C10.3838 5.93475 10.369 5.87052 10.3404 5.81204C10.3119 5.75356 10.2704 5.70235 10.2191 5.66233Z" fill="black" fill-opacity="0.85"/>
</svg>
