<svg width="12" height="14" viewBox="0 0 12 14" fill="none" xmlns="http://www.w3.org/2000/svg">
<path d="M3.625 1.8739H3.5C3.56875 1.8739 3.625 1.81765 3.625 1.7489V1.8739H8.375V1.7489C8.375 1.81765 8.43125 1.8739 8.5 1.8739H8.375V2.9989H9.5V1.7489C9.5 1.19734 9.05156 0.748901 8.5 0.748901H3.5C2.94844 0.748901 2.5 1.19734 2.5 1.7489V2.9989H3.625V1.8739ZM11.5 2.9989H0.5C0.223438 2.9989 0 3.22234 0 3.4989V3.9989C0 4.06765 0.05625 4.1239 0.125 4.1239H1.06875L1.45469 12.2958C1.47969 12.8286 1.92031 13.2489 2.45313 13.2489H9.54688C10.0813 13.2489 10.5203 12.8302 10.5453 12.2958L10.9313 4.1239H11.875C11.9438 4.1239 12 4.06765 12 3.9989V3.4989C12 3.22234 11.7766 2.9989 11.5 2.9989ZM9.42656 12.1239H2.57344L2.19531 4.1239H9.80469L9.42656 12.1239Z" fill="#FF4D4F"/>
</svg>
