<svg width="12" height="12" viewBox="0 0 12 12" fill="none" xmlns="http://www.w3.org/2000/svg">
<path d="M6.96856 8.3957C6.94506 8.37244 6.91334 8.35939 6.88027 8.35939C6.84721 8.35939 6.81549 8.37244 6.79199 8.3957L4.97637 10.2113C4.13574 11.052 2.71699 11.141 1.78887 10.2113C0.85918 9.28164 0.948242 7.86445 1.78887 7.02383L3.60449 5.2082C3.65293 5.15977 3.65293 5.08008 3.60449 5.03164L2.98262 4.40977C2.95912 4.3865 2.9274 4.37345 2.89434 4.37345C2.86127 4.37345 2.82955 4.3865 2.80606 4.40977L0.99043 6.22539C-0.331445 7.54727 -0.331445 9.68633 0.99043 11.0066C2.3123 12.327 4.45137 12.3285 5.77168 11.0066L7.58731 9.19102C7.63574 9.14258 7.63574 9.06289 7.58731 9.01445L6.96856 8.3957ZM11.0092 0.989453C9.68731 -0.332422 7.54824 -0.332422 6.22793 0.989453L4.41074 2.80508C4.38748 2.82857 4.37443 2.8603 4.37443 2.89336C4.37443 2.92642 4.38748 2.95815 4.41074 2.98164L5.03106 3.60195C5.07949 3.65039 5.15918 3.65039 5.20762 3.60195L7.02324 1.78633C7.86387 0.945703 9.28262 0.856641 10.2107 1.78633C11.1404 2.71602 11.0514 4.1332 10.2107 4.97383L8.39512 6.78945C8.37185 6.81295 8.35881 6.84467 8.35881 6.87774C8.35881 6.9108 8.37185 6.94252 8.39512 6.96602L9.01699 7.58789C9.06543 7.63633 9.14512 7.63633 9.19356 7.58789L11.0092 5.77227C12.3295 4.45039 12.3295 2.31133 11.0092 0.989453ZM7.53262 3.81602C7.50912 3.79275 7.4774 3.7797 7.44434 3.7797C7.41128 3.7797 7.37955 3.79275 7.35606 3.81602L3.81699 7.35352C3.79373 7.37701 3.78068 7.40874 3.78068 7.4418C3.78068 7.47486 3.79373 7.50659 3.81699 7.53008L4.43574 8.14883C4.48418 8.19727 4.56387 8.19727 4.61231 8.14883L8.14981 4.61133C8.19824 4.56289 8.19824 4.4832 8.14981 4.43477L7.53262 3.81602Z" fill="white"/>
</svg>
