<svg width="12" height="12" viewBox="0 0 12 12" fill="none" xmlns="http://www.w3.org/2000/svg">
<path d="M6.46838 0.375854H5.53088C5.44755 0.375854 5.40588 0.417521 5.40588 0.500855V5.4071H0.75C0.666667 5.4071 0.625 5.44877 0.625 5.5321V6.46961C0.625 6.55294 0.666667 6.59461 0.75 6.59461H5.40588V11.5009C5.40588 11.5842 5.44755 11.6259 5.53088 11.6259H6.46838C6.55172 11.6259 6.59338 11.5842 6.59338 11.5009V6.59461H11.25C11.3333 6.59461 11.375 6.55294 11.375 6.46961V5.5321C11.375 5.44877 11.3333 5.4071 11.25 5.4071H6.59338V0.500855C6.59338 0.417521 6.55172 0.375854 6.46838 0.375854Z" fill="white"/>
</svg>
