<svg width="12" height="12" viewBox="0 0 12 12" fill="none" xmlns="http://www.w3.org/2000/svg">
<path d="M6.46838 0.378906H5.53088C5.44755 0.378906 5.40588 0.420573 5.40588 0.503906V5.41016H0.75C0.666667 5.41016 0.625 5.45182 0.625 5.53516V6.47266C0.625 6.55599 0.666667 6.59766 0.75 6.59766H5.40588V11.5039C5.40588 11.5872 5.44755 11.6289 5.53088 11.6289H6.46838C6.55172 11.6289 6.59338 11.5872 6.59338 11.5039V6.59766H11.25C11.3333 6.59766 11.375 6.55599 11.375 6.47266V5.53516C11.375 5.45182 11.3333 5.41016 11.25 5.41016H6.59338V0.503906C6.59338 0.420573 6.55172 0.378906 6.46838 0.378906Z" fill="#1B963A"/>
</svg>
