<svg width="14" height="14" viewBox="0 0 14 14" fill="none" xmlns="http://www.w3.org/2000/svg">
<path d="M13.2047 2.27068L12.3234 2.95974C11.1219 1.4238 9.25313 0.437866 7.15469 0.437866C3.53126 0.437866 0.598443 3.36755 0.593756 6.99255C0.589068 10.6207 3.52813 13.5629 7.15469 13.5629C9.98751 13.5629 12.4016 11.766 13.3203 9.24881C13.3438 9.18318 13.3094 9.10974 13.2438 9.08787L12.3578 8.78318C12.3269 8.77259 12.2931 8.77451 12.2636 8.78853C12.2341 8.80254 12.2113 8.82754 12.2 8.85818C12.1719 8.93631 12.1406 9.01443 12.1078 9.09099C11.8375 9.73162 11.45 10.3066 10.9563 10.8004C10.4665 11.2911 9.88661 11.6826 9.24844 11.9535C8.58751 12.2332 7.88282 12.3754 7.15782 12.3754C6.43126 12.3754 5.72813 12.2332 5.06719 11.9535C4.42841 11.6837 3.84832 11.2921 3.35938 10.8004C2.86829 10.3107 2.47717 9.73008 2.20782 9.09099C1.92813 8.42849 1.78594 7.72537 1.78594 6.9988C1.78594 6.27224 1.92813 5.56912 2.20782 4.90662C2.47813 4.26599 2.86563 3.69099 3.35938 3.19724C3.85313 2.70349 4.42813 2.31599 5.06719 2.04412C5.72813 1.76443 6.43282 1.62224 7.15782 1.62224C7.88438 1.62224 8.58751 1.76443 9.24844 2.04412C9.88723 2.31387 10.4673 2.70555 10.9563 3.19724C11.1109 3.35193 11.2563 3.51599 11.3906 3.68787L10.45 4.42224C10.4314 4.43664 10.4172 4.456 10.4091 4.47809C10.401 4.50018 10.3993 4.52411 10.4042 4.54712C10.4091 4.57014 10.4204 4.5913 10.4368 4.60819C10.4532 4.62507 10.474 4.63698 10.4969 4.64255L13.2406 5.31443C13.3188 5.33318 13.3953 5.2738 13.3953 5.19412L13.4078 2.36755C13.4063 2.26443 13.2859 2.20662 13.2047 2.27068Z" fill="black" fill-opacity="0.85"/>
</svg>
