<svg width="14" height="13" viewBox="0 0 14 13" fill="none" xmlns="http://www.w3.org/2000/svg">
<path fill-rule="evenodd" clip-rule="evenodd" d="M8.17747 8.24025C7.84928 8.56844 7.40416 8.75281 6.94003 8.75281C6.88863 8.75281 6.838 8.75047 6.78785 8.74609L8.68331 6.85063C8.68769 6.90078 8.69003 6.95156 8.69003 7.00281C8.69003 7.46694 8.50566 7.91206 8.17747 8.24025ZM12.065 0.922813L12.7325 1.58969C12.7442 1.6013 12.7534 1.61508 12.7597 1.63026C12.766 1.64543 12.7692 1.6617 12.7692 1.67813C12.7692 1.69455 12.766 1.71082 12.7597 1.72599C12.7534 1.74117 12.7442 1.75495 12.7325 1.76656L1.60503 12.8934C1.58159 12.9169 1.54981 12.93 1.51667 12.93C1.48353 12.93 1.45175 12.9169 1.42831 12.8934L0.761282 12.2264C0.737857 12.203 0.724699 12.1712 0.724699 12.138C0.724699 12.1049 0.737857 12.0731 0.761282 12.0497L2.41425 10.3973C1.58248 9.64714 0.871282 8.65 0.280657 7.40594C0.221243 7.28013 0.19043 7.14272 0.19043 7.00359C0.19043 6.86446 0.221243 6.72706 0.280657 6.60125C1.75878 3.47313 3.99941 1.90906 7.00253 1.90906C8.17868 1.90906 9.2379 2.14984 10.1802 2.63141L11.8883 0.922813C11.9118 0.899389 11.9435 0.88623 11.9767 0.88623C12.0098 0.88623 12.0416 0.899389 12.065 0.922813ZM4.54701 5.64759C4.31298 6.06092 4.18999 6.52782 4.19003 7.00281C4.18937 7.45459 4.30059 7.8995 4.51378 8.29781L5.27347 7.53813C5.17537 7.23175 5.16355 6.90427 5.23932 6.59163C5.31509 6.27898 5.47551 5.99324 5.70299 5.76577C5.93046 5.53829 6.2162 5.37787 6.52885 5.3021C6.84149 5.22634 7.16897 5.23815 7.47535 5.33625L8.23503 4.57656C7.816 4.35289 7.34618 4.24156 6.87134 4.25342C6.3965 4.26529 5.93283 4.39994 5.52549 4.64426C5.11816 4.88859 4.78105 5.23425 4.54701 5.64759ZM11.7602 3.76606C12.5195 4.49679 13.1741 5.44132 13.7241 6.59965C13.7835 6.72546 13.8143 6.86286 13.8143 7.002C13.8143 7.14113 13.7835 7.27854 13.7241 7.40434C12.246 10.5325 10.0053 12.0965 7.00221 12.0965C5.917 12.0965 4.93127 11.8915 4.04502 11.4814L5.95534 9.57106C6.45161 9.76091 6.99224 9.80299 7.51191 9.69222C8.03158 9.58145 8.50806 9.32256 8.88378 8.94685C9.2595 8.57113 9.51838 8.09465 9.62915 7.57498C9.73992 7.05531 9.69784 6.51468 9.50799 6.0184L11.7602 3.76606Z" fill="black" fill-opacity="0.25"/>
</svg>
