<svg width="18" height="18" viewBox="0 0 18 18" fill="none" xmlns="http://www.w3.org/2000/svg">
<path d="M16.99 15.8839L11.7728 10.6668C12.5824 9.62011 13.0204 8.34042 13.0204 6.99444C13.0204 5.38328 12.3916 3.87256 11.2545 2.7335C10.1175 1.59444 8.60273 0.967651 6.99358 0.967651C5.38443 0.967651 3.8697 1.59645 2.73264 2.7335C1.59358 3.87055 0.966797 5.38328 0.966797 6.99444C0.966797 8.60359 1.59559 10.1183 2.73264 11.2554C3.8697 12.3944 5.38242 13.0212 6.99358 13.0212C8.33956 13.0212 9.61724 12.5833 10.6639 11.7757L15.8811 16.9909C15.8964 17.0062 15.9145 17.0183 15.9345 17.0266C15.9545 17.0349 15.976 17.0392 15.9976 17.0392C16.0192 17.0392 16.0407 17.0349 16.0607 17.0266C16.0807 17.0183 16.0988 17.0062 16.1141 16.9909L16.99 16.117C17.0053 16.1017 17.0175 16.0835 17.0257 16.0635C17.034 16.0435 17.0383 16.0221 17.0383 16.0005C17.0383 15.9788 17.034 15.9574 17.0257 15.9374C17.0175 15.9174 17.0053 15.8992 16.99 15.8839ZM10.1757 10.1766C9.32394 11.0264 8.19492 11.4944 6.99358 11.4944C5.79224 11.4944 4.66323 11.0264 3.81144 10.1766C2.96166 9.32479 2.49358 8.19578 2.49358 6.99444C2.49358 5.7931 2.96166 4.66207 3.81144 3.81229C4.66323 2.96252 5.79224 2.49444 6.99358 2.49444C8.19492 2.49444 9.32595 2.96051 10.1757 3.81229C11.0255 4.66408 11.4936 5.7931 11.4936 6.99444C11.4936 8.19578 11.0255 9.3268 10.1757 10.1766Z" fill="black" fill-opacity="0.45"/>
</svg>
