<svg width="14" height="13" viewBox="0 0 14 13" fill="none" xmlns="http://www.w3.org/2000/svg">
<path fill-rule="evenodd" clip-rule="evenodd" d="M8.17649 8.24025C7.8483 8.56844 7.40318 8.75281 6.93906 8.75281C6.88765 8.75281 6.83702 8.75047 6.78687 8.74609L8.68234 6.85063C8.68671 6.90078 8.68906 6.95156 8.68906 7.00281C8.68906 7.46694 8.50468 7.91206 8.17649 8.24025ZM12.0641 0.922813L12.7316 1.58969C12.7432 1.6013 12.7524 1.61508 12.7587 1.63026C12.765 1.64543 12.7682 1.6617 12.7682 1.67813C12.7682 1.69455 12.765 1.71082 12.7587 1.72599C12.7524 1.74117 12.7432 1.75495 12.7316 1.76656L1.60406 12.8934C1.58062 12.9169 1.54883 12.93 1.5157 12.93C1.48256 12.93 1.45078 12.9169 1.42734 12.8934L0.760305 12.2264C0.736881 12.203 0.723722 12.1712 0.723722 12.138C0.723722 12.1049 0.736881 12.0731 0.760305 12.0497L2.41327 10.3973C1.5815 9.64714 0.870305 8.65 0.27968 7.40594C0.220267 7.28013 0.189453 7.14272 0.189453 7.00359C0.189453 6.86446 0.220267 6.72706 0.27968 6.60125C1.75781 3.47313 3.99843 1.90906 7.00156 1.90906C8.1777 1.90906 9.23692 2.14984 10.1792 2.63141L11.8873 0.922813C11.9108 0.899389 11.9426 0.88623 11.9757 0.88623C12.0088 0.88623 12.0406 0.899389 12.0641 0.922813ZM4.54604 5.64759C4.312 6.06092 4.18901 6.52782 4.18906 7.00281C4.18839 7.45459 4.29962 7.8995 4.51281 8.29781L5.27249 7.53813C5.17439 7.23175 5.16258 6.90427 5.23835 6.59163C5.31411 6.27898 5.47453 5.99324 5.70201 5.76577C5.92948 5.53829 6.21522 5.37787 6.52787 5.3021C6.84052 5.22634 7.16799 5.23815 7.47437 5.33625L8.23406 4.57656C7.81503 4.35289 7.34521 4.24156 6.87037 4.25342C6.39552 4.26529 5.93185 4.39994 5.52451 4.64426C5.11718 4.88859 4.78007 5.23425 4.54604 5.64759ZM11.7592 3.76606C12.5185 4.49679 13.1731 5.44132 13.7231 6.59965C13.7825 6.72546 13.8134 6.86286 13.8134 7.002C13.8134 7.14113 13.7825 7.27854 13.7231 7.40434C12.245 10.5325 10.0044 12.0965 7.00124 12.0965C5.91603 12.0965 4.9303 11.8915 4.04405 11.4814L5.95436 9.57106C6.45063 9.76091 6.99126 9.80299 7.51093 9.69222C8.03061 9.58145 8.50708 9.32256 8.8828 8.94685C9.25852 8.57113 9.5174 8.09465 9.62818 7.57498C9.73895 7.05531 9.69687 6.51468 9.50702 6.0184L11.7592 3.76606Z" fill="black" fill-opacity="0.25"/>
</svg>
