<svg width="8" height="6" viewBox="0 0 8 6" fill="none" xmlns="http://www.w3.org/2000/svg">
<path fill-rule="evenodd" clip-rule="evenodd" d="M0.464768 3.65013C0.0742439 4.04065 0.0742439 4.67382 0.464768 5.06434C0.855293 5.45487 1.48846 5.45487 1.87898 5.06434L4.00028 2.94305L6.1216 5.06437C6.51212 5.45489 7.14529 5.45489 7.53581 5.06437C7.92633 4.67384 7.92633 4.04068 7.53581 3.65016L4.71349 0.827837C4.71147 0.825785 4.70945 0.82374 4.70741 0.821702C4.32299 0.437279 3.70345 0.431273 3.31168 0.803682C3.30546 0.809593 3.2993 0.8156 3.2932 0.821702C3.29319 0.82171 3.29318 0.821719 3.29317 0.821728C3.2931 0.821797 3.29303 0.821866 3.29296 0.821935L0.464768 3.65013Z" fill="black" fill-opacity="0.85"/>
</svg>
