<svg width="12" height="12" viewBox="0 0 12 12" fill="none" xmlns="http://www.w3.org/2000/svg">
<path d="M2.53154 1.69353L3.21748 1.00759C3.234 0.990985 3.24553 0.970078 3.25076 0.947245C3.25599 0.924411 3.2547 0.900569 3.24705 0.87843C3.2394 0.85629 3.22569 0.836742 3.20748 0.822009C3.18927 0.807276 3.16729 0.797949 3.14404 0.79509L0.640915 0.499777C0.561227 0.490402 0.492477 0.55759 0.501852 0.63884L0.797165 3.14196C0.809665 3.24509 0.936228 3.28884 1.00967 3.2154L1.69248 2.53259L3.78154 4.62009C3.82998 4.66853 3.90967 4.66853 3.9581 4.62009L4.6206 3.95915C4.66904 3.91071 4.66904 3.83103 4.6206 3.78259L2.53154 1.69353ZM8.04248 4.62009C8.09092 4.66853 8.1706 4.66853 8.21904 4.62009L10.3081 2.53259L10.9909 3.2154C11.0075 3.23192 11.0284 3.24346 11.0513 3.24868C11.0741 3.25391 11.0979 3.25263 11.1201 3.24498C11.1422 3.23733 11.1618 3.22361 11.1765 3.2054C11.1912 3.18719 11.2006 3.16521 11.2034 3.14196L11.4987 0.640402C11.5081 0.560715 11.4409 0.491965 11.3597 0.50134L8.85654 0.796652C8.75342 0.809152 8.70967 0.935715 8.7831 1.00915L9.46904 1.69509L7.37998 3.78103C7.35672 3.80452 7.34367 3.83625 7.34367 3.86931C7.34367 3.90237 7.35672 3.9341 7.37998 3.95759L8.04248 4.62009ZM11.2034 8.85759C11.1909 8.75446 11.0644 8.71071 10.9909 8.78415L10.3081 9.46696L8.21904 7.37946C8.19555 7.3562 8.16382 7.34315 8.13076 7.34315C8.0977 7.34315 8.06597 7.3562 8.04248 7.37946L7.37998 8.0404C7.35672 8.06389 7.34367 8.09562 7.34367 8.12868C7.34367 8.16175 7.35672 8.19347 7.37998 8.21696L9.46904 10.306L8.7831 10.992C8.76658 11.0086 8.75505 11.0295 8.74982 11.0523C8.74459 11.0751 8.74588 11.099 8.75353 11.1211C8.76118 11.1433 8.77489 11.1628 8.7931 11.1775C8.81131 11.1923 8.83329 11.2016 8.85654 11.2045L11.3597 11.4998C11.4394 11.5092 11.5081 11.442 11.4987 11.3607L11.2034 8.85759ZM3.9581 7.37946C3.93461 7.3562 3.90288 7.34315 3.86982 7.34315C3.83676 7.34315 3.80503 7.3562 3.78154 7.37946L1.69248 9.46696L1.00967 8.78415C0.993061 8.76763 0.972153 8.7561 0.94932 8.75087C0.926486 8.74564 0.902644 8.74693 0.880505 8.75458C0.858365 8.76223 0.838818 8.77594 0.824084 8.79415C0.809351 8.81236 0.800025 8.83434 0.797165 8.85759L0.501852 11.3592C0.492477 11.4388 0.559665 11.5076 0.640915 11.4982L3.14404 11.2029C3.24717 11.1904 3.29092 11.0638 3.21748 10.9904L2.53154 10.306L4.6206 8.21853C4.66904 8.17009 4.66904 8.0904 4.6206 8.04196L3.9581 7.37946Z" fill="black" fill-opacity="0.85"/>
</svg>
