<svg width="8" height="6" viewBox="0 0 8 6" fill="none" xmlns="http://www.w3.org/2000/svg">
<path fill-rule="evenodd" clip-rule="evenodd" d="M0.464768 3.64964C0.0742439 4.04016 0.0742439 4.67333 0.464768 5.06385C0.855293 5.45438 1.48846 5.45438 1.87898 5.06385L4.00028 2.94256L6.1216 5.06388C6.51212 5.4544 7.14529 5.4544 7.53581 5.06388C7.92633 4.67336 7.92633 4.04019 7.53581 3.64967L4.71349 0.827348C4.71147 0.825297 4.70945 0.823252 4.70741 0.821214C4.32299 0.436791 3.70345 0.430785 3.31168 0.803194C3.30546 0.809105 3.2993 0.815112 3.2932 0.821214C3.29319 0.821222 3.29318 0.821231 3.29317 0.821239C3.2931 0.821309 3.29303 0.821378 3.29296 0.821447L0.464768 3.64964Z" fill="black" fill-opacity="0.85"/>
</svg>
