<svg width="12" height="14" viewBox="0 0 12 14" fill="none" xmlns="http://www.w3.org/2000/svg">
<path d="M11.125 12.0612H0.875C0.80625 12.0612 0.75 12.1174 0.75 12.1862V13.1237C0.75 13.1924 0.80625 13.2487 0.875 13.2487H11.125C11.1938 13.2487 11.25 13.1924 11.25 13.1237V12.1862C11.25 12.1174 11.1938 12.0612 11.125 12.0612ZM11.125 0.748657H0.875C0.80625 0.748657 0.75 0.804907 0.75 0.873657V1.81116C0.75 1.87991 0.80625 1.93616 0.875 1.93616H11.125C11.1938 1.93616 11.25 1.87991 11.25 1.81116V0.873657C11.25 0.804907 11.1938 0.748657 11.125 0.748657ZM7.54375 4.90491C7.6375 4.90491 7.69063 4.79553 7.63281 4.7221L6.05781 2.72834C6.04739 2.71485 6.03401 2.70393 6.01871 2.69642C6.0034 2.6889 5.98658 2.68499 5.96953 2.68499C5.95248 2.68499 5.93566 2.6889 5.92036 2.69642C5.90505 2.70393 5.89167 2.71485 5.88125 2.72834L4.30625 4.7221C4.29313 4.73878 4.28497 4.75882 4.28271 4.77992C4.28046 4.80102 4.28419 4.82234 4.29348 4.84142C4.30278 4.8605 4.31726 4.87657 4.33527 4.8878C4.35328 4.89903 4.37409 4.90496 4.39531 4.90491H5.4375V9.09241H4.45625C4.3625 9.09241 4.30938 9.20178 4.36719 9.27522L5.94219 11.2674C5.9875 11.3252 6.075 11.3252 6.11875 11.2674L7.69375 9.27522C7.75156 9.20178 7.7 9.09241 7.60469 9.09241H6.5625V4.90491H7.54375Z" fill="black" fill-opacity="0.85"/>
</svg>
